<svg width="272" height="272" viewBox="0 0 272 272" fill="none" xmlns="http://www.w3.org/2000/svg">
<path d="M146.107 8C137.615 8 128.229 10.3798 125.547 11.5696L43.7527 46.3736C43.7527 46.3736 35.4731 49.3368 30.7908 55.2978C26.1084 61.2587 25.4273 67.7915 25.4272 71.8073C25.4271 75.8232 25.4272 125.798 25.4272 125.798C20.2703 128.392 14.5201 132.433 11.7696 136.895C8.1939 142.696 4.61549 152.588 9.08514 161.958C14.9014 171.357 21.165 175.385 25.4272 178.897V203.884C25.7848 208.882 27.1704 211.47 28.109 212.808C29.0476 214.147 32.5786 219.501 41.9649 224.41L121.077 259.214C132.699 265.014 152.365 265.46 163.539 260.998L196.167 247.166L246.674 225.302C252.396 222.803 257.402 218.311 259.189 216.378C262.765 212.094 265 207.008 265 201.207V70.0225C264.553 62.8832 261.648 58.4212 259.636 55.744C258.499 54.2295 255.614 50.8357 244.44 45.4812L171.584 13.8007C160.5 8.80317 154.6 8 146.107 8Z" fill="#002A2B"/>
<path d="M145.649 15.1393C137.634 15.1393 128.776 17.3875 126.246 18.5116L49.0555 51.3909C49.0555 51.3909 41.3376 54.0979 36.8233 59.8215C32.3089 65.5451 31.7617 71.6243 31.7616 75.4181C31.7615 79.2119 31.6847 132.045 31.6847 132.045C24.4564 132.045 18.9227 136.334 16.155 140.523C12.9124 145.431 10.6775 153.909 15.5941 161.495C21.4047 169.08 28.109 173.988 31.7616 174.881V200.191C32.0991 204.912 33.4067 207.357 34.2925 208.622C35.1783 209.886 38.5105 214.945 47.3684 219.581L122.028 252.461C132.995 257.941 151.554 258.362 162.099 254.147L192.891 241.079L240.555 220.424C245.954 218.064 250.678 213.821 252.365 211.994C255.739 207.947 257.849 203.142 257.849 197.662V73.732C257.427 66.9875 254.685 62.7722 252.787 60.243C251.713 58.8123 248.991 55.6062 238.446 50.5478L169.691 20.6192C159.231 15.8981 153.663 15.1393 145.649 15.1393Z" fill="#62CCAE"/>
<path d="M31.6849 124.811C33.7707 125.406 39.5985 128.141 39.956 134.21C40.8508 156.14 39.956 158.825 34.1398 165.986C33.4943 166.781 32.3502 167.741 31.763 170.462V179.343H25.4274V167.741C25.4274 166.403 25.8743 164.618 27.6622 162.833C29.897 160.602 32.6271 157.035 33.245 152.559C33.6924 145.399 33.245 138.685 32.7976 134.657C32.4974 131.954 28.7709 131.972 26.3409 132.867L24.0432 133.524C23.686 133.677 23.3966 133.789 23.209 133.762L31.6849 124.811Z" fill="#002A2B"/>
<path d="M71.7601 85.8424C70.3795 93.4825 64.2341 98.4748 58.4902 97.0451C52.7463 95.6154 50.2068 88.2825 52.109 80.666C53.7145 74.2378 59.2543 68.4196 65.3788 69.4633C71.1227 70.893 73.2911 77.3706 71.7601 85.8424Z" fill="#002A2B"/>
<path d="M128.721 68.3038C126.479 77.3081 119.939 83.2601 113.293 81.6008C106.647 79.9416 103.742 71.2947 105.984 62.2904C109.303 53.6504 115.244 48.2797 121.759 49.8369C128.405 51.4961 130.963 59.2995 128.721 68.3038Z" fill="#002A2B"/>
<path d="M55.8208 120.783C52.193 121.818 49.7988 126.165 49.7988 129.734L49.1163 153.463C49.1163 189.605 66.9949 204.776 79.0629 209.685C99.4445 216.467 115.365 202.099 121.078 193.621C131.602 178.004 134.933 153.007 134.933 137.399V119.105C134.933 111.966 130.329 110.687 128.349 110.489C124.773 110.132 120.294 112.581 118.506 113.622C113.137 116.749 102.555 123.565 97.4779 126.154C89.4247 130.26 80.4722 130.726 76.0025 129.734C72.7844 129.02 69.2297 126.467 66.5479 124.46C62.2571 121.247 59.4486 119.748 55.8208 120.783Z" fill="#002A2B"/>
<path d="M126.888 165.51C88.8963 163.726 73.6995 183.507 67.442 194.96C78.5267 207.81 94.0859 207.007 99.1765 204.776C117.949 196.549 125.1 174.881 126.888 165.51Z" fill="#D7F5EC"/>
<path fill-rule="evenodd" clip-rule="evenodd" d="M149.521 15.2187C151.935 16.6725 154.6 19.9487 154.6 26.2944V108.396C156.03 108.039 158.474 108.247 159.517 108.396L160.411 28.5254C160.411 26.4431 160.411 23.1709 162.198 21.3861C163.444 20.143 165.054 19.4156 167.026 19.4572C159.851 16.4501 155.021 15.4759 149.521 15.2187Z" fill="#D7F5EC"/>
<path d="M155.494 224.41L154.6 172.252C155.941 174.037 157.282 174.881 158.176 174.881L157.282 224.41C157.282 225.302 156.958 225.748 156.388 225.748C155.817 225.748 155.494 225.302 155.494 224.41Z" fill="url(#paint0_linear)"/>
<path d="M145.991 141.371C146.438 153.418 152.067 156.892 154.6 158.825V172.203C155.315 175.416 158.504 175.385 159.963 174.435C168.188 169.08 175.072 163.301 181.335 153.455C186.257 143.608 184.913 131.511 182.678 127.049C180.212 122.126 177.309 118.098 170.598 113.175C164.782 108.699 157.945 107.991 154.044 108.699C149.127 109.592 146.885 113.643 146.438 120.336L145.991 141.371Z" fill="#002A2B"/>
<path d="M152.702 124.811L152.365 140.969C152.702 148.084 156.774 152.305 159.413 154.35C160.843 155.614 160.857 157.04 160.965 158.825V162.998C160.965 164.618 161.617 164.614 162.198 164.172C167.466 160.168 173.73 155.005 176.861 147.189C178.649 142.727 179.471 133.762 175.713 128.392C170.319 120.683 164.228 114.843 158.071 115.413C153.637 115.822 152.702 120.612 152.702 124.811Z" fill="#62CCAE"/>
<defs>
<linearGradient id="paint0_linear" x1="156.388" y1="172.65" x2="156.388" y2="229.764" gradientUnits="userSpaceOnUse">
<stop stop-color="#D7F5EC"/>
<stop offset="1" stop-color="#D7F5EC" stop-opacity="0"/>
</linearGradient>
</defs>
</svg>
